<svg width="153" height="41" viewBox="0 0 153 41" fill="none" xmlns="http://www.w3.org/2000/svg">
<path d="M12.5432 7.7788L1.18432 31.0648C-0.492537 34.5023 1.15373 38.0503 4.86135 38.9895C8.56904 39.9288 12.934 37.9033 14.6109 34.4659L25.9698 11.1799C27.6467 7.74244 26.0003 4.19426 22.2927 3.25516C18.585 2.31589 14.2201 4.34135 12.5432 7.7788Z" fill="url(#paint0_linear_2655_7773)"/>
<path d="M27.2373 7.42504L34.2297 21.7578C35.8752 25.1303 34.2601 28.6114 30.6224 29.5329C26.9848 30.4545 22.7022 28.4676 21.057 25.095L14.0644 10.7623C12.419 7.38976 14.0341 3.90867 17.6717 2.98722C21.3093 2.06558 25.5921 4.05249 27.2373 7.42504Z" fill="url(#paint1_linear_2655_7773)"/>
<path d="M29.4579 7.4423L22.485 21.7348C20.8342 25.1185 22.4544 28.611 26.1039 29.5358C29.7535 30.4603 34.0502 28.4668 35.7011 25.0832L42.6739 10.7907C44.3248 7.40703 42.7044 3.91448 39.0548 2.98994C35.4053 2.06521 31.1086 4.05866 29.4579 7.4423Z" fill="url(#paint2_linear_2655_7773)"/>
<path d="M44.7141 7.55224L56.1847 31.0671C57.8616 34.5046 56.2154 38.0528 52.5078 38.9919C48.8001 39.9311 44.4351 37.9057 42.7582 34.4682L31.2876 10.9533C29.6107 7.51588 31.2571 3.96769 34.9647 3.0286C38.6721 2.08933 43.0374 4.11478 44.7141 7.55224Z" fill="url(#paint3_linear_2655_7773)"/>
<g clip-path="url(#clip0_2655_7773)">
<path d="M143.991 32.1179C142.284 32.1179 140.78 31.7553 139.479 31.0299C138.199 30.2833 137.207 29.2379 136.503 27.8939C135.799 26.5499 135.447 24.9925 135.447 23.2219C135.447 21.5152 135.809 20.0005 136.535 18.6779C137.26 17.3552 138.263 16.3205 139.543 15.5739C140.823 14.8059 142.284 14.4219 143.927 14.4219C145.271 14.4219 146.487 14.6779 147.575 15.1899C148.684 15.6805 149.612 16.3845 150.359 17.3019C151.105 18.2192 151.639 19.2859 151.959 20.5019C152.279 21.6965 152.332 22.9872 152.119 24.3739H138.071V21.5579H147.415C147.372 20.3632 147.02 19.4245 146.359 18.7419C145.719 18.0379 144.876 17.6859 143.831 17.6859C142.999 17.6859 142.295 17.8992 141.719 18.3259C141.143 18.7525 140.695 19.3819 140.375 20.2139C140.076 21.0245 139.927 22.0272 139.927 23.2219C139.927 24.3952 140.076 25.3872 140.375 26.1979C140.673 27.0085 141.121 27.6272 141.719 28.0539C142.316 28.4805 143.041 28.6939 143.895 28.6939C144.876 28.6939 145.687 28.4592 146.327 27.9899C146.967 27.5205 147.415 26.8699 147.671 26.0379H152.087C151.596 27.9579 150.647 29.4513 149.239 30.5179C147.831 31.5845 146.081 32.1179 143.991 32.1179Z" fill="#042567"/>
<path d="M133.53 26.3579C133.53 28.1285 132.869 29.5365 131.546 30.5819C130.245 31.6273 128.378 32.1499 125.946 32.1499C123.535 32.1499 121.647 31.6059 120.282 30.5179C118.938 29.4085 118.181 27.9045 118.01 26.0059H122.266C122.287 26.8805 122.639 27.5845 123.322 28.1179C124.026 28.6299 124.922 28.8859 126.01 28.8859C126.885 28.8859 127.61 28.7473 128.186 28.4699C128.762 28.1712 129.05 27.7232 129.05 27.1259C129.05 26.5925 128.869 26.1872 128.506 25.9099C128.143 25.6325 127.546 25.4192 126.714 25.2699L123.642 24.6939C122.106 24.4165 120.901 23.8619 120.026 23.0299C119.151 22.1979 118.714 21.1205 118.714 19.7979C118.714 18.7312 119.002 17.7925 119.578 16.9819C120.154 16.1712 120.965 15.5419 122.01 15.0939C123.055 14.6459 124.282 14.4219 125.69 14.4219C127.119 14.4219 128.378 14.6672 129.466 15.1579C130.575 15.6272 131.45 16.3099 132.09 17.2059C132.751 18.1019 133.135 19.1579 133.242 20.3739H128.986C128.922 19.5419 128.591 18.8912 127.994 18.4219C127.397 17.9312 126.629 17.6859 125.69 17.6859C124.879 17.6859 124.218 17.8352 123.706 18.1339C123.215 18.4112 122.97 18.8272 122.97 19.3819C122.97 19.8939 123.151 20.2779 123.514 20.5339C123.877 20.7685 124.442 20.9605 125.21 21.1099L128.506 21.7179C130.17 22.0379 131.418 22.5819 132.25 23.3499C133.103 24.1179 133.53 25.1205 133.53 26.3579Z" fill="#042567"/>
<path d="M110.685 24.6282V14.7402H115.101V31.8282H111.037V29.5882C110.589 30.3348 109.917 30.9536 109.021 31.4442C108.125 31.9136 107.133 32.1482 106.045 32.1482C104.915 32.1482 103.901 31.9136 103.005 31.4442C102.109 30.9748 101.405 30.2602 100.893 29.3002C100.381 28.3189 100.125 27.0922 100.125 25.6202V14.7402H104.573V24.7562C104.573 25.9509 104.84 26.8256 105.373 27.3802C105.928 27.9349 106.653 28.2122 107.549 28.2122C108.083 28.2122 108.584 28.0736 109.053 27.7962C109.544 27.5189 109.939 27.1136 110.237 26.5802C110.536 26.0256 110.685 25.3749 110.685 24.6282Z" fill="#042567"/>
<path d="M81.4139 31.8295L75.3979 16.5655V31.8295H70.9819V8.85352H76.8059L83.4619 25.8775L90.1499 8.85352H95.9739V31.8295H91.5579V16.4375L85.4779 31.8295H81.4139Z" fill="#042567"/>
</g>
<defs>
<linearGradient id="paint0_linear_2655_7773" x1="3.97033" y1="38.7424" x2="28.0169" y2="7.19898" gradientUnits="userSpaceOnUse">
<stop stop-color="#69DEC6"/>
<stop offset="1" stop-color="#49C2D4"/>
</linearGradient>
<linearGradient id="paint1_linear_2655_7773" x1="16.5915" y1="3.52358" x2="43.5244" y2="35.2812" gradientUnits="userSpaceOnUse">
<stop stop-color="#48C2D4"/>
<stop offset="1" stop-color="#1595EA"/>
</linearGradient>
<linearGradient id="paint2_linear_2655_7773" x1="24.6711" y1="29.3519" x2="60.9891" y2="-12.1978" gradientUnits="userSpaceOnUse">
<stop stop-color="#1695EA"/>
<stop offset="1" stop-color="#548CE7"/>
</linearGradient>
<linearGradient id="paint3_linear_2655_7773" x1="35.8607" y1="2.52533" x2="60.0351" y2="35.4931" gradientUnits="userSpaceOnUse">
<stop stop-color="#518DE7"/>
<stop offset="1" stop-color="#7687E5"/>
</linearGradient>
<clipPath id="clip0_2655_7773">
<rect width="82" height="24" fill="white" transform="translate(70.9819 8.5)"/>
</clipPath>
</defs>
</svg>
